<?xml version="1.0" encoding="utf-8"?>
<!-- Generator: Adobe Illustrator 26.0.1, SVG Export Plug-In . SVG Version: 6.00 Build 0)  -->
<svg version="1.1" id="Layer_1" xmlns="http://www.w3.org/2000/svg" xmlns:xlink="http://www.w3.org/1999/xlink" x="0px" y="0px"
	 viewBox="0 0 106 69" style="enable-background:new 0 0 106 69;" xml:space="preserve">
<style type="text/css">
	.st0{opacity:0.2;}
	.st1{fill:#4B465C;}
</style>
<g class="st0">
	<g>
		<g id="_x31_5_00000132769072730449677730000012425726828956215698_">
			<g>
				<path class="st1" d="M39.7,20.9h0.7c1.1,0,2.1-0.9,2.1-2.1v-5.6v-2.2c0-1.1-0.9-2.1-2.1-2.1h-0.7c-1.1,0-2.1,0.9-2.1,2.1v2.1
					v5.6C37.6,20,38.6,20.9,39.7,20.9z"/>
				<path class="st1" d="M65.9,20.9h0.7c1.1,0,2.1-0.9,2.1-2.1v-6.1v-1.6c0-1.1-0.9-2.1-2.1-2.1h-0.7c-1.1,0-2.1,0.9-2.1,2.1v1.6
					v6.2C63.9,19.9,64.8,20.9,65.9,20.9z"/>
				<path class="st1" d="M75.6,13.2h-5.3v6.1c0,2.1-1.6,3.2-3.7,3.2h-0.7c-2.1,0-3.7-1.6-3.7-3.7v-5.6h-18v5.6
					c0,2.1-1.6,3.7-3.7,3.7h-0.7c-2.1,0-3.7-1.6-3.7-3.7v-5.6h-5.6c-1.9,0-3.3,1.5-3.3,3.3v40.1c0,1.9,1.5,3.3,3.3,3.3h45.3
					c1.9,0,3.3-1.5,3.3-3.3V16.5C78.9,14.7,77.4,13.2,75.6,13.2z M75.6,56.7H30.3V26.3h45.3L75.6,56.7L75.6,56.7z"/>
				<path class="st1" d="M54.7,36.5h5.9c0.2,0,0.4-0.2,0.4-0.4v-5.2c0-0.2-0.2-0.4-0.4-0.4h-5.9c-0.2,0-0.4,0.2-0.4,0.4v5.2
					C54.2,36.4,54.4,36.5,54.7,36.5z"/>
				<path class="st1" d="M64.4,36.5h5.9c0.2,0,0.4-0.2,0.4-0.4v-5.2c0-0.2-0.2-0.4-0.4-0.4h-5.9c-0.2,0-0.4,0.2-0.4,0.4v5.2
					C64,36.4,64.2,36.5,64.4,36.5z"/>
				<path class="st1" d="M35.2,45h5.9c0.2,0,0.4-0.2,0.4-0.4v-5.2c0-0.2-0.2-0.4-0.4-0.4h-5.9c-0.2,0-0.4,0.2-0.4,0.4v5.2
					C34.8,44.8,34.9,45,35.2,45z"/>
				<path class="st1" d="M45,45h5.9c0.2,0,0.4-0.2,0.4-0.4v-5.2c0-0.2-0.2-0.4-0.4-0.4H45c-0.2,0-0.4,0.2-0.4,0.4v5.2
					C44.5,44.8,44.7,45,45,45z"/>
				<path class="st1" d="M54.7,45h5.9c0.2,0,0.4-0.2,0.4-0.4v-5.2c0-0.2-0.2-0.4-0.4-0.4h-5.9c-0.2,0-0.4,0.2-0.4,0.4v5.2
					C54.2,44.8,54.4,45,54.7,45z"/>
				<path class="st1" d="M64.4,45h5.9c0.2,0,0.4-0.2,0.4-0.4v-5.2c0-0.2-0.2-0.4-0.4-0.4h-5.9c-0.2,0-0.4,0.2-0.4,0.4v5.2
					C64,44.8,64.2,45,64.4,45z"/>
				<path class="st1" d="M41.2,47.4h-5.9c-0.2,0-0.4,0.2-0.4,0.4V53c0,0.2,0.2,0.4,0.4,0.4h5.9c0.2,0,0.4-0.2,0.4-0.4v-5.2
					C41.6,47.6,41.4,47.4,41.2,47.4z"/>
				<path class="st1" d="M50.9,47.4H45c-0.2,0-0.4,0.2-0.4,0.4V53c0,0.2,0.2,0.4,0.4,0.4h5.9c0.2,0,0.4-0.2,0.4-0.4v-5.2
					C51.3,47.6,51.1,47.4,50.9,47.4z"/>
				<path class="st1" d="M60.7,47.4h-5.9c-0.2,0-0.4,0.2-0.4,0.4V53c0,0.2,0.2,0.4,0.4,0.4h5.9c0.2,0,0.4-0.2,0.4-0.4v-5.2
					C61,47.6,60.9,47.4,60.7,47.4z"/>
				<path class="st1" d="M70.4,47.4h-5.9c-0.2,0-0.4,0.2-0.4,0.4V53c0,0.2,0.2,0.4,0.4,0.4h5.9c0.2,0,0.4-0.2,0.4-0.4v-5.2
					C70.8,47.6,70.6,47.4,70.4,47.4z"/>
			</g>
		</g>
	</g>
</g>
</svg>
