<?xml version="1.0" encoding="utf-8"?>
<!-- Generator: Adobe Illustrator 26.0.1, SVG Export Plug-In . SVG Version: 6.00 Build 0)  -->
<svg version="1.1" id="Layer_1" xmlns="http://www.w3.org/2000/svg" xmlns:xlink="http://www.w3.org/1999/xlink" x="0px" y="0px"
	 viewBox="0 0 106 69" style="enable-background:new 0 0 106 69;" xml:space="preserve">
<style type="text/css">
	.st0{opacity:0.2;}
	.st1{fill:#4B465C;}
</style>
<g class="st0">
	<g>
		<g id="_x31_5_00000176760456588416372490000013830684534468841916_">
			<g>
				<path class="st1" d="M39.7,20.9h0.7c1.1,0,2.1-0.9,2.1-2.1v-5.6v-2.2c0-1.1-0.9-2.1-2.1-2.1h-0.7c-1.1,0-2.1,0.9-2.1,2.1v2.1
					v5.6C37.6,20,38.6,20.9,39.7,20.9z"/>
				<path class="st1" d="M65.9,20.9h0.7c1.1,0,2.1-0.9,2.1-2.1v-6.1v-1.6c0-1.1-0.9-2.1-2.1-2.1h-0.7c-1.1,0-2.1,0.9-2.1,2.1v1.6
					v6.2C63.9,19.9,64.8,20.9,65.9,20.9z"/>
				<path class="st1" d="M75.6,13.2h-5.3v6.1c0,2.1-1.6,3.2-3.7,3.2h-0.7c-2.1,0-3.7-1.6-3.7-3.7v-5.6h-18v5.6
					c0,2.1-1.6,3.7-3.7,3.7h-0.7c-2.1,0-3.7-1.6-3.7-3.7v-5.6h-5.6c-1.9,0-3.3,1.5-3.3,3.3v40.1c0,1.9,1.5,3.3,3.3,3.3h45.3
					c1.9,0,3.3-1.5,3.3-3.3V16.5C78.9,14.7,77.4,13.2,75.6,13.2z M75.6,56.7H30.3V26.3h45.3L75.6,56.7L75.6,56.7z"/>
				<g id="Layer_2_00000007396597489699307280000002555050679864983438_">
					<g id="check_00000103242476753743589320000016851034629368355510_">
						<path class="st1" d="M64.7,32.8c-0.8-0.8-2-0.8-2.8,0L48.5,46.1l-4.4-4.4c-0.8-0.8-2-0.8-2.8,0c-0.8,0.8-0.8,2,0,2.8l5.8,5.8
							c0.7,0.7,1.6,0.8,2.4,0.3c0.1,0,0.1-0.1,0.1-0.1c0.1-0.1,0.2-0.2,0.3-0.3l14.8-14.7C65.4,34.8,65.4,33.5,64.7,32.8L64.7,32.8z
							"/>
					</g>
				</g>
			</g>
		</g>
	</g>
</g>
</svg>
