<?xml version="1.0" encoding="utf-8"?>
<!-- Generator: Adobe Illustrator 26.0.1, SVG Export Plug-In . SVG Version: 6.00 Build 0)  -->
<svg version="1.1" id="Layer_1" xmlns="http://www.w3.org/2000/svg" xmlns:xlink="http://www.w3.org/1999/xlink" x="0px" y="0px"
	 viewBox="0 0 106 69" style="enable-background:new 0 0 106 69;" xml:space="preserve">
<style type="text/css">
	.st0{opacity:0.2;}
	.st1{fill:#4B465C;}
	.st2{enable-background:new    ;}
</style>
<g class="st0">
	<g>
		<g id="_x31_5_00000009592664378411734610000014448908143529477515_">
			<g>
				<path class="st1" d="M39.7,20.9h0.7c1.1,0,2.1-0.9,2.1-2.1v-5.6v-2.2c0-1.1-0.9-2.1-2.1-2.1h-0.7c-1.1,0-2.1,0.9-2.1,2.1v2.1
					v5.6C37.6,20,38.6,20.9,39.7,20.9z"/>
				<path class="st1" d="M65.9,20.9h0.7c1.1,0,2.1-0.9,2.1-2.1v-6.1v-1.6c0-1.1-0.9-2.1-2.1-2.1h-0.7c-1.1,0-2.1,0.9-2.1,2.1v1.6
					v6.2C63.9,19.9,64.8,20.9,65.9,20.9z"/>
				<path class="st1" d="M75.6,13.2h-5.3v6.1c0,2.1-1.6,3.2-3.7,3.2h-0.7c-2.1,0-3.7-1.6-3.7-3.7v-5.6h-18v5.6
					c0,2.1-1.6,3.7-3.7,3.7h-0.7c-2.1,0-3.7-1.6-3.7-3.7v-5.6h-5.6c-1.9,0-3.3,1.5-3.3,3.3v40.1c0,1.9,1.5,3.3,3.3,3.3h45.3
					c1.9,0,3.3-1.5,3.3-3.3V16.5C78.9,14.7,77.4,13.2,75.6,13.2z M75.6,56.7H30.3V26.3h45.3L75.6,56.7L75.6,56.7z"/>
				<g class="st2">
					<path class="st1" d="M47.9,36.9l-2.2,8.4h-2.5l-1.3-5.5l-1.4,5.5H38l-2.1-8.4H38l1.2,6.1l1.5-6.1H43l1.4,6.1l1.2-6.1H47.9z"/>
					<path class="st1" d="M55.2,42.5h-4.6c0,0.4,0.2,0.7,0.4,1c0.2,0.2,0.5,0.3,0.9,0.3c0.5,0,0.9-0.2,1.1-0.6h2.2
						c-0.1,0.4-0.3,0.8-0.6,1.2c-0.3,0.4-0.7,0.6-1.1,0.8c-0.4,0.2-0.9,0.3-1.5,0.3c-0.7,0-1.2-0.1-1.8-0.4
						c-0.5-0.3-0.9-0.7-1.2-1.2c-0.3-0.5-0.4-1.1-0.4-1.8s0.1-1.3,0.4-1.8c0.3-0.5,0.7-0.9,1.2-1.2c0.5-0.3,1.1-0.4,1.8-0.4
						c0.6,0,1.2,0.1,1.7,0.4c0.5,0.3,0.9,0.7,1.2,1.2c0.3,0.5,0.4,1.1,0.4,1.8C55.2,42.1,55.2,42.3,55.2,42.5z M53.1,41.3
						c0-0.4-0.1-0.6-0.4-0.8c-0.2-0.2-0.5-0.3-0.9-0.3c-0.3,0-0.6,0.1-0.9,0.3c-0.2,0.2-0.4,0.5-0.4,0.9H53.1z"/>
					<path class="st1" d="M62.6,42.5h-4.6c0,0.4,0.2,0.7,0.4,1c0.2,0.2,0.5,0.3,0.9,0.3c0.5,0,0.9-0.2,1.1-0.6h2.2
						c-0.1,0.4-0.3,0.8-0.6,1.2c-0.3,0.4-0.7,0.6-1.1,0.8c-0.4,0.2-0.9,0.3-1.5,0.3c-0.7,0-1.2-0.1-1.8-0.4
						c-0.5-0.3-0.9-0.7-1.2-1.2c-0.3-0.5-0.4-1.1-0.4-1.8s0.1-1.3,0.4-1.8s0.7-0.9,1.2-1.2c0.5-0.3,1.1-0.4,1.8-0.4
						c0.6,0,1.2,0.1,1.7,0.4c0.5,0.3,0.9,0.7,1.2,1.2c0.3,0.5,0.4,1.1,0.4,1.8C62.6,42.1,62.6,42.3,62.6,42.5z M60.5,41.3
						c0-0.4-0.1-0.6-0.4-0.8c-0.2-0.2-0.5-0.3-0.9-0.3c-0.3,0-0.6,0.1-0.9,0.3C58.2,40.7,58,41,58,41.3H60.5z"/>
					<path class="st1" d="M67.8,45.3l-2-2.8v2.8h-2.1v-8.9h2.1v4.9l2-2.7h2.5L67.5,42l2.8,3.3H67.8z"/>
				</g>
			</g>
		</g>
	</g>
</g>
</svg>
